<svg width="852" height="918" viewBox="0 0 852 918" fill="none" xmlns="http://www.w3.org/2000/svg">
<path d="M117.114 761L90.0227 667.909H114.886L128.932 728.909H129.705L145.75 667.909H166.023L182.068 729.045H182.841L196.932 667.909H221.75L194.705 761H173.023L156.25 704.545H155.523L138.75 761H117.114ZM255.886 762.318C248.553 762.318 242.25 760.818 236.977 757.818C231.735 754.788 227.689 750.576 224.841 745.182C222.023 739.758 220.614 733.47 220.614 726.318C220.614 719.136 222.023 712.848 224.841 707.455C227.689 702.03 231.735 697.818 236.977 694.818C242.25 691.788 248.553 690.273 255.886 690.273C263.22 690.273 269.508 691.788 274.75 694.818C280.023 697.818 284.068 702.03 286.886 707.455C289.735 712.848 291.159 719.136 291.159 726.318C291.159 733.47 289.735 739.758 286.886 745.182C284.068 750.576 280.023 754.788 274.75 757.818C269.508 760.818 263.22 762.318 255.886 762.318ZM256.023 745.545C258.689 745.545 260.947 744.727 262.795 743.091C264.644 741.455 266.053 739.182 267.023 736.273C268.023 733.364 268.523 730 268.523 726.182C268.523 722.303 268.023 718.909 267.023 716C266.053 713.091 264.644 710.818 262.795 709.182C260.947 707.545 258.689 706.727 256.023 706.727C253.265 706.727 250.932 707.545 249.023 709.182C247.144 710.818 245.705 713.091 244.705 716C243.735 718.909 243.25 722.303 243.25 726.182C243.25 730 243.735 733.364 244.705 736.273C245.705 739.182 247.144 741.455 249.023 743.091C250.932 744.727 253.265 745.545 256.023 745.545ZM302.545 761V691.182H323.682V704H324.455C325.909 699.758 328.364 696.409 331.818 693.955C335.273 691.5 339.394 690.273 344.182 690.273C349.03 690.273 353.182 691.515 356.636 694C360.091 696.485 362.288 699.818 363.227 704H363.955C365.258 699.848 367.803 696.53 371.591 694.045C375.379 691.53 379.848 690.273 385 690.273C391.606 690.273 396.97 692.394 401.091 696.636C405.212 700.848 407.273 706.636 407.273 714V761H385.045V719.091C385.045 715.606 384.152 712.955 382.364 711.136C380.576 709.288 378.258 708.364 375.409 708.364C372.348 708.364 369.939 709.364 368.182 711.364C366.455 713.333 365.591 715.985 365.591 719.318V761H344.227V718.864C344.227 715.621 343.348 713.061 341.591 711.182C339.833 709.303 337.515 708.364 334.636 708.364C332.697 708.364 330.985 708.833 329.5 709.773C328.015 710.682 326.848 711.985 326 713.682C325.182 715.379 324.773 717.379 324.773 719.682V761H302.545ZM453.682 762.318C446.379 762.318 440.076 760.879 434.773 758C429.5 755.091 425.439 750.955 422.591 745.591C419.773 740.197 418.364 733.788 418.364 726.364C418.364 719.152 419.788 712.848 422.636 707.455C425.485 702.03 429.5 697.818 434.682 694.818C439.864 691.788 445.97 690.273 453 690.273C457.97 690.273 462.515 691.045 466.636 692.591C470.758 694.136 474.318 696.424 477.318 699.455C480.318 702.485 482.652 706.227 484.318 710.682C485.985 715.106 486.818 720.182 486.818 725.909V731.455H426.136V718.545H466.136C466.106 716.182 465.545 714.076 464.455 712.227C463.364 710.379 461.864 708.939 459.955 707.909C458.076 706.848 455.909 706.318 453.455 706.318C450.97 706.318 448.742 706.879 446.773 708C444.803 709.091 443.242 710.591 442.091 712.5C440.939 714.379 440.333 716.515 440.273 718.909V732.045C440.273 734.894 440.833 737.394 441.955 739.545C443.076 741.667 444.667 743.318 446.727 744.5C448.788 745.682 451.242 746.273 454.091 746.273C456.061 746.273 457.848 746 459.455 745.455C461.061 744.909 462.439 744.106 463.591 743.045C464.742 741.985 465.606 740.682 466.182 739.136L486.591 739.727C485.742 744.303 483.879 748.288 481 751.682C478.152 755.045 474.409 757.667 469.773 759.545C465.136 761.394 459.773 762.318 453.682 762.318ZM520.398 721.182V761H498.17V691.182H519.307V704H520.08C521.625 699.727 524.261 696.379 527.989 693.955C531.716 691.5 536.155 690.273 541.307 690.273C546.216 690.273 550.473 691.379 554.08 693.591C557.716 695.773 560.534 698.833 562.534 702.773C564.564 706.682 565.564 711.258 565.534 716.5V761H543.307V720.864C543.337 716.985 542.352 713.955 540.352 711.773C538.383 709.591 535.64 708.5 532.125 708.5C529.792 708.5 527.731 709.015 525.943 710.045C524.186 711.045 522.822 712.485 521.852 714.364C520.913 716.242 520.428 718.515 520.398 721.182ZM606.795 761V691.182H629.023V761H606.795ZM617.932 683.045C614.811 683.045 612.129 682.015 609.886 679.955C607.644 677.864 606.523 675.348 606.523 672.409C606.523 669.5 607.644 667.015 609.886 664.955C612.129 662.864 614.811 661.818 617.932 661.818C621.083 661.818 623.765 662.864 625.977 664.955C628.22 667.015 629.341 669.5 629.341 672.409C629.341 675.348 628.22 677.864 625.977 679.955C623.765 682.015 621.083 683.045 617.932 683.045ZM665.398 721.182V761H643.17V691.182H664.307V704H665.08C666.625 699.727 669.261 696.379 672.989 693.955C676.716 691.5 681.155 690.273 686.307 690.273C691.216 690.273 695.473 691.379 699.08 693.591C702.716 695.773 705.534 698.833 707.534 702.773C709.564 706.682 710.564 711.258 710.534 716.5V761H688.307V720.864C688.337 716.985 687.352 713.955 685.352 711.773C683.383 709.591 680.64 708.5 677.125 708.5C674.792 708.5 672.731 709.015 670.943 710.045C669.186 711.045 667.822 712.485 666.852 714.364C665.913 716.242 665.428 718.515 665.398 721.182ZM51.1193 916H26.9375L58.3466 822.909H88.3011L119.71 916H95.5284L73.6648 846.364H72.9375L51.1193 916ZM47.892 879.364H98.4375V896.455H47.892V879.364ZM152.233 822.909V916H129.733V822.909H152.233ZM193.858 916V822.909H232.312C239.282 822.909 245.297 824.167 250.358 826.682C255.449 829.167 259.373 832.742 262.131 837.409C264.888 842.045 266.267 847.545 266.267 853.909C266.267 860.364 264.858 865.848 262.04 870.364C259.222 874.848 255.222 878.273 250.04 880.636C244.858 882.97 238.722 884.136 231.631 884.136H207.312V866.409H227.449C230.843 866.409 233.676 865.97 235.949 865.091C238.252 864.182 239.994 862.818 241.176 861C242.358 859.152 242.949 856.788 242.949 853.909C242.949 851.03 242.358 848.652 241.176 846.773C239.994 844.864 238.252 843.439 235.949 842.5C233.646 841.53 230.813 841.045 227.449 841.045H216.358V916H193.858ZM246.267 873.455L269.449 916H244.903L222.176 873.455H246.267ZM309.869 917.318C302.566 917.318 296.263 915.879 290.96 913C285.688 910.091 281.627 905.955 278.778 900.591C275.96 895.197 274.551 888.788 274.551 881.364C274.551 874.152 275.975 867.848 278.824 862.455C281.672 857.03 285.688 852.818 290.869 849.818C296.051 846.788 302.157 845.273 309.188 845.273C314.157 845.273 318.703 846.045 322.824 847.591C326.945 849.136 330.506 851.424 333.506 854.455C336.506 857.485 338.839 861.227 340.506 865.682C342.172 870.106 343.006 875.182 343.006 880.909V886.455H282.324V873.545H322.324C322.294 871.182 321.733 869.076 320.642 867.227C319.551 865.379 318.051 863.939 316.142 862.909C314.263 861.848 312.097 861.318 309.642 861.318C307.157 861.318 304.93 861.879 302.96 863C300.991 864.091 299.43 865.591 298.278 867.5C297.127 869.379 296.521 871.515 296.46 873.909V887.045C296.46 889.894 297.021 892.394 298.142 894.545C299.263 896.667 300.854 898.318 302.915 899.5C304.975 900.682 307.43 901.273 310.278 901.273C312.248 901.273 314.036 901 315.642 900.455C317.248 899.909 318.627 899.106 319.778 898.045C320.93 896.985 321.794 895.682 322.369 894.136L342.778 894.727C341.93 899.303 340.066 903.288 337.188 906.682C334.339 910.045 330.597 912.667 325.96 914.545C321.324 916.394 315.96 917.318 309.869 917.318ZM415.312 867.5L394.903 868.045C394.691 866.591 394.116 865.303 393.176 864.182C392.237 863.03 391.009 862.136 389.494 861.5C388.009 860.833 386.282 860.5 384.312 860.5C381.737 860.5 379.54 861.015 377.722 862.045C375.934 863.076 375.055 864.47 375.085 866.227C375.055 867.591 375.6 868.773 376.722 869.773C377.873 870.773 379.919 871.576 382.858 872.182L396.312 874.727C403.282 876.061 408.464 878.273 411.858 881.364C415.282 884.455 417.009 888.545 417.04 893.636C417.009 898.424 415.585 902.591 412.767 906.136C409.979 909.682 406.161 912.439 401.312 914.409C396.464 916.348 390.919 917.318 384.676 917.318C374.706 917.318 366.843 915.273 361.085 911.182C355.358 907.061 352.085 901.545 351.267 894.636L373.222 894.091C373.706 896.636 374.964 898.576 376.994 899.909C379.025 901.242 381.616 901.909 384.767 901.909C387.616 901.909 389.934 901.379 391.722 900.318C393.509 899.258 394.419 897.848 394.449 896.091C394.419 894.515 393.722 893.258 392.358 892.318C390.994 891.348 388.858 890.591 385.949 890.045L373.767 887.727C366.767 886.455 361.555 884.106 358.131 880.682C354.706 877.227 353.009 872.833 353.04 867.5C353.009 862.833 354.252 858.848 356.767 855.545C359.282 852.212 362.858 849.667 367.494 847.909C372.131 846.152 377.6 845.273 383.903 845.273C393.358 845.273 400.813 847.258 406.267 851.227C411.722 855.167 414.737 860.591 415.312 867.5ZM460.619 917.318C453.316 917.318 447.013 915.879 441.71 913C436.438 910.091 432.377 905.955 429.528 900.591C426.71 895.197 425.301 888.788 425.301 881.364C425.301 874.152 426.725 867.848 429.574 862.455C432.422 857.03 436.438 852.818 441.619 849.818C446.801 846.788 452.907 845.273 459.938 845.273C464.907 845.273 469.453 846.045 473.574 847.591C477.695 849.136 481.256 851.424 484.256 854.455C487.256 857.485 489.589 861.227 491.256 865.682C492.922 870.106 493.756 875.182 493.756 880.909V886.455H433.074V873.545H473.074C473.044 871.182 472.483 869.076 471.392 867.227C470.301 865.379 468.801 863.939 466.892 862.909C465.013 861.848 462.847 861.318 460.392 861.318C457.907 861.318 455.68 861.879 453.71 863C451.741 864.091 450.18 865.591 449.028 867.5C447.877 869.379 447.271 871.515 447.21 873.909V887.045C447.21 889.894 447.771 892.394 448.892 894.545C450.013 896.667 451.604 898.318 453.665 899.5C455.725 900.682 458.18 901.273 461.028 901.273C462.998 901.273 464.786 901 466.392 900.455C467.998 899.909 469.377 899.106 470.528 898.045C471.68 896.985 472.544 895.682 473.119 894.136L493.528 894.727C492.68 899.303 490.816 903.288 487.938 906.682C485.089 910.045 481.347 912.667 476.71 914.545C472.074 916.394 466.71 917.318 460.619 917.318ZM524.79 917.182C520.335 917.182 516.381 916.439 512.926 914.955C509.502 913.439 506.79 911.167 504.79 908.136C502.82 905.076 501.835 901.242 501.835 896.636C501.835 892.758 502.517 889.485 503.881 886.818C505.244 884.152 507.123 881.985 509.517 880.318C511.911 878.652 514.669 877.394 517.79 876.545C520.911 875.667 524.244 875.076 527.79 874.773C531.759 874.409 534.956 874.03 537.381 873.636C539.805 873.212 541.563 872.621 542.653 871.864C543.775 871.076 544.335 869.97 544.335 868.545V868.318C544.335 865.985 543.532 864.182 541.926 862.909C540.32 861.636 538.153 861 535.426 861C532.487 861 530.123 861.636 528.335 862.909C526.547 864.182 525.411 865.939 524.926 868.182L504.426 867.455C505.032 863.212 506.593 859.424 509.108 856.091C511.653 852.727 515.138 850.091 519.562 848.182C524.017 846.242 529.366 845.273 535.608 845.273C540.063 845.273 544.169 845.803 547.926 846.864C551.684 847.894 554.956 849.409 557.744 851.409C560.532 853.379 562.684 855.803 564.199 858.682C565.744 861.561 566.517 864.848 566.517 868.545V916H545.608V906.273H545.062C543.82 908.636 542.229 910.636 540.29 912.273C538.381 913.909 536.123 915.136 533.517 915.955C530.941 916.773 528.032 917.182 524.79 917.182ZM531.653 902.636C534.047 902.636 536.199 902.152 538.108 901.182C540.047 900.212 541.593 898.879 542.744 897.182C543.896 895.455 544.472 893.455 544.472 891.182V884.545C543.835 884.879 543.063 885.182 542.153 885.455C541.275 885.727 540.305 885.985 539.244 886.227C538.184 886.47 537.093 886.682 535.972 886.864C534.85 887.045 533.775 887.212 532.744 887.364C530.653 887.697 528.866 888.212 527.381 888.909C525.926 889.606 524.805 890.515 524.017 891.636C523.259 892.727 522.881 894.03 522.881 895.545C522.881 897.848 523.699 899.606 525.335 900.818C527.002 902.03 529.108 902.636 531.653 902.636ZM580.108 916V846.182H601.699V858.909H602.426C603.699 854.303 605.775 850.879 608.653 848.636C611.532 846.364 614.881 845.227 618.699 845.227C619.729 845.227 620.79 845.303 621.881 845.455C622.972 845.576 623.987 845.773 624.926 846.045V865.364C623.866 865 622.472 864.712 620.744 864.5C619.047 864.288 617.532 864.182 616.199 864.182C613.563 864.182 611.184 864.773 609.062 865.955C606.972 867.106 605.32 868.727 604.108 870.818C602.926 872.879 602.335 875.303 602.335 878.091V916H580.108ZM662.949 917.318C655.585 917.318 649.267 915.803 643.994 912.773C638.752 909.742 634.722 905.53 631.903 900.136C629.085 894.712 627.676 888.439 627.676 881.318C627.676 874.167 629.085 867.894 631.903 862.5C634.752 857.076 638.797 852.848 644.04 849.818C649.313 846.788 655.6 845.273 662.903 845.273C669.358 845.273 674.979 846.439 679.767 848.773C684.585 851.106 688.343 854.409 691.04 858.682C693.767 862.924 695.206 867.909 695.358 873.636H674.585C674.161 870.061 672.949 867.258 670.949 865.227C668.979 863.197 666.403 862.182 663.222 862.182C660.646 862.182 658.388 862.909 656.449 864.364C654.509 865.788 652.994 867.909 651.903 870.727C650.843 873.515 650.312 876.97 650.312 881.091C650.312 885.212 650.843 888.697 651.903 891.545C652.994 894.364 654.509 896.5 656.449 897.955C658.388 899.379 660.646 900.091 663.222 900.091C665.282 900.091 667.1 899.652 668.676 898.773C670.282 897.894 671.6 896.606 672.631 894.909C673.661 893.182 674.312 891.091 674.585 888.636H695.358C695.146 894.394 693.706 899.424 691.04 903.727C688.403 908.03 684.691 911.379 679.903 913.773C675.146 916.136 669.494 917.318 662.949 917.318ZM728.96 876.182V916H706.733V822.909H728.233V859H729.006C730.581 854.697 733.157 851.333 736.733 848.909C740.339 846.485 744.748 845.273 749.96 845.273C754.869 845.273 759.142 846.364 762.778 848.545C766.415 850.697 769.233 853.742 771.233 857.682C773.263 861.621 774.263 866.227 774.233 871.5V916H752.006V875.864C752.036 871.985 751.066 868.955 749.097 866.773C747.127 864.591 744.354 863.5 740.778 863.5C738.445 863.5 736.384 864.015 734.597 865.045C732.839 866.045 731.46 867.485 730.46 869.364C729.491 871.242 728.991 873.515 728.96 876.182Z" fill="#DACFE3"/>
<path d="M354.789 207.613C231.756 240.705 128.412 348.289 75.5095 456.031C131.758 493.754 290.354 528.229 431.13 492.523C571.117 457.018 691.353 351.633 723.578 281.845C626.089 216.463 481.28 173.592 354.789 207.613Z" fill="#DACFE3"/>
<ellipse cx="395.806" cy="349.326" rx="137" ry="137.5" transform="rotate(-15 395.806 349.326)" fill="#591B9B"/>
<path d="M312.062 349.187L376.051 419.82M390.367 328.473L453.355 399.106M375.669 419.803L390.402 328.273M453.974 399.09L469.707 307.559M312.633 349.733L453.467 399.073M375.531 419.507L469.427 307.251M369.41 399.431C380.694 396.408 392.284 403.077 395.299 414.327C398.313 425.577 391.61 437.148 380.327 440.171C369.043 443.195 357.452 436.526 354.438 425.275C351.424 414.025 358.127 402.454 369.41 399.431ZM306.717 328.899C318 325.876 329.591 332.545 332.605 343.795C335.62 355.045 328.916 366.616 317.633 369.639C306.35 372.663 294.759 365.994 291.744 354.744C288.73 343.494 295.433 331.923 306.717 328.899ZM447.819 378.421C459.103 375.398 470.693 382.067 473.708 393.317C476.722 404.567 470.019 416.138 458.736 419.162C447.452 422.185 435.861 415.516 432.847 404.266C429.832 393.016 436.536 381.445 447.819 378.421ZM385.126 307.89C396.409 304.866 408 311.535 411.014 322.785C414.029 334.035 407.325 345.606 396.042 348.63C384.758 351.653 373.168 344.984 370.153 333.734C367.139 322.484 373.842 310.913 385.126 307.89ZM463.534 286.88C474.818 283.857 486.409 290.526 489.423 301.776C492.438 313.026 485.734 324.597 474.451 327.62C463.167 330.644 451.577 323.975 448.562 312.724C445.548 301.474 452.251 289.903 463.534 286.88Z" stroke="#DACFE3" stroke-width="10"/>
<path d="M349.095 186.363C178.323 232.122 99.3716 398.262 75.5957 456.35C89 466 231.411 283.066 367.746 246.535C504.081 210.004 694.412 327.808 725.405 281.199L775.703 177.652C645.776 250.614 510.349 143.155 349.095 186.363Z" fill="#A56EE3"/>
<path d="M727.713 275.745C702.538 285.129 676.235 280.136 673.538 289.745C651.538 368.129 536.538 457.129 477.538 478.129C537.537 469.129 662.537 407.129 727.713 275.745Z" fill="#A56EE3"/>
</svg>
