<svg width="500" height="500" viewBox="0 0 500 500" fill="none" xmlns="http://www.w3.org/2000/svg">
<path fill-rule="evenodd" clip-rule="evenodd" d="M430.937 100.655C416.574 103.31 373.221 118.36 350.687 128.515C323.654 140.697 307.038 150.799 292.96 163.615C280.184 175.246 270.463 191.739 265.727 209.821C264.326 215.172 263.16 217.9 262.274 217.9C261.797 217.9 259.143 215.106 258.013 213.414C256.71 211.464 256.995 209.724 259.01 207.323C261.846 203.941 262.355 202.29 261.988 197.651C261.773 194.933 261.91 192.448 262.416 189.9C265.837 172.69 274.464 146.221 279.935 136.15C288.143 121.042 303.04 109.145 312.586 110.075C317.662 110.569 322.7 114.951 322.676 118.85C322.661 121.308 321.128 124.49 318.931 126.624C316.024 127.9 315.524 128.4 315.524 128.4C315.024 130.9 314.769 130.855 318.532 132.427C318.532 132.427 324.952 127.789 326.074 125.676C326.96 124.009 327.253 116.783 326.539 114.221C326.013 112.334 321.466 107.567 318.941 106.257C316.342 104.908 309.592 104.859 305.62 106.161C294.085 109.942 282.666 120.323 275.485 133.555C269.677 144.258 262.895 164.524 257.591 187.025L257.149 188.9L252.293 188.897C246.868 188.894 243.922 188.277 243.248 187.003C242.999 186.534 241.542 181.763 240.01 176.4C235.067 159.106 229.498 143.503 225.121 134.681C219.623 123.603 206.831 110.452 198.394 107.204C194.742 105.798 192.241 105.374 187.279 105.316C182.969 105.265 182.06 105.408 180.275 106.411C177.982 107.7 175.911 110.062 174.14 113.41C173.182 115.221 172.953 116.416 172.946 119.65C172.938 123.15 173.121 123.982 174.406 126.301C175.846 128.902 179.007 132.117 182.005 133.4C184.44 133.311 186.264 130.725 182.175 127.499C182.175 127.499 176.563 119.922 178.132 115.796C179.458 112.308 185.13 109.499 189.584 110.123C196.11 111.038 202.022 114.262 208.347 120.357C213.383 125.209 218.937 133.093 222.153 139.957C223.896 143.676 230.114 161.322 231.207 165.65C231.415 166.475 232.188 169.175 232.924 171.65C233.66 174.125 235.151 179.619 236.237 183.859C237.993 190.711 238.204 192.162 238.131 196.925C238.054 201.878 238.147 202.45 239.346 204.467C240.06 205.668 241.144 207.597 241.755 208.755C242.977 211.068 242.888 211.474 240.427 214.849C239.745 215.784 239.187 217.053 239.187 217.671C239.187 218.802 237.99 219.647 237.135 219.118C236.277 218.587 234.857 215.168 234.242 212.15C233.346 207.751 230.367 198.849 227.938 193.309C219.664 174.442 204.643 159.016 180.937 145.039C161.456 133.552 132.13 121.071 97.1872 109.392C76.7567 102.564 70.0842 100.844 63.5797 100.728C59.6892 100.659 59.1037 100.769 58.1092 101.76C56.5167 103.347 56.6502 106.867 58.4377 110.425C59.7382 113.013 67.7652 125.193 74.2382 134.4C78.2492 140.106 104.196 145.47 105.834 151.485C107.15 156.32 84.4022 157.994 84.3622 170.9C84.3292 181.688 84.1152 185.637 83.2112 192.15C81.7997 202.324 81.2927 218.33 82.1907 224.368C84.6167 240.673 92.4927 250.094 105.834 252.646C117.604 254.898 139.121 254.906 153.324 252.663C166.563 250.572 168.039 251.283 160.55 256.144C148.641 263.873 135.21 275.574 126.968 285.4C115.994 298.482 110.484 311.826 113.563 317.865C115.12 320.918 116.507 321.534 122.415 321.797C125.315 321.926 143.5 310.746 143.5 311C143.5 311.254 126.474 324.474 124.992 326.332C118.577 334.371 115.357 341.29 114.837 348.15C114.51 352.465 115.246 355.363 117.249 357.645C119.175 359.837 121.209 360.394 127.312 360.397C130.349 360.399 151 339.676 151 340C151 340.285 130.747 364.299 128.988 367.795C124.965 375.786 123.479 381.322 123.786 387.18C124.073 392.647 125.832 396.38 129.096 398.45C131.164 399.761 131.796 399.9 135.691 399.9C143.072 399.9 149.741 397.127 162.689 388.676C175.068 380.596 196.143 361.36 206.267 348.9C219.734 332.328 230.699 312.904 234.918 298.15C236.744 291.762 239.733 288.323 240.457 291.775C241.751 297.948 242.524 298.4 244.024 303.9C244.433 305.789 247.64 313.035 248.5 313.5C250.998 318.782 251.5 315.5 252.5 314C254 312 256.06 301.592 257.722 296.15C259.058 291.778 260.014 289.9 260.906 289.9C261.306 289.9 262.181 291.432 262.977 293.525C263.735 295.519 265.576 300.188 267.069 303.9C278.868 333.238 294.491 354.215 320.774 376.005C340.469 392.334 354.162 399.9 364.021 399.9C368.393 399.9 370.605 398.97 373.286 396.002C375.838 393.178 376.444 391.013 376.396 384.9C376.346 378.58 375.425 375.42 371.115 366.783C369.505 363.556 328 333.771 328 333.5C328 333.203 370.341 359.946 373.6 359.972C380.543 360.029 382.254 359.241 384.402 355.002C385.504 352.826 385.507 346.107 384.407 342.4C383.227 338.424 380.667 333.811 376.68 328.479C374.759 325.91 345 313.757 345 313.5C345 312.824 375.476 321.9 377.498 321.9C381.039 321.9 383.632 320.874 385.445 318.756C386.395 317.646 387.304 316.035 387.466 315.175C388.107 311.758 384.909 302.449 380.606 295.205C374.51 284.945 360.076 270.943 343.687 259.392C337.254 254.857 334.187 252.42 334.187 251.84C334.187 251.197 337.743 251.328 343.437 252.18C358.842 254.485 374.164 255.13 384.687 253.916C391.206 253.165 398.797 251.202 402.672 249.266C408.375 246.417 412.988 240.561 415.366 233.15C418.317 223.956 418.339 206.758 415.427 186.65C413.694 174.685 390.981 160.013 393.024 151.485C394.466 145.466 422.363 136.536 430.831 124.717C435.775 117.816 440.519 109.771 441.524 106.582C443.414 100.589 440.406 98.905 430.937 100.655Z" fill="#080809"/>
</svg>
